<!-- <?xml version="1.0" encoding="utf-8"?>
<svg viewBox="0 0 60 60" width="24" height="24">    
    <defs>      
      <clipPath id="prefix__a">        
        <path d="M0 0h60v60H0z" />        
      </clipPath>      
    </defs>    
    <g clipPath="url(#prefix__a)">      
      <g display="block">        
        <path fill="#FF2B54" d="M54 30c0 13.255-10.745 24-24 24S6 43.255 6 30 16.745 6 30 6s24 10.745 24 24z" />        
        <path d="M54 30c0 13.255-10.745 24-24 24S6 43.255 6 30 16.745 6 30 6s24 10.745 24 24z" fill="none" />        
      </g>      
      <g display="block">        
        <path fill="#FF2B54" d="M30 21.125v18" />
        <path strokeLinecap="round" stroke="#FFF" strokeWidth={4} d="M30 21.125v18" fill="none" />        
      </g>      
      <g display="block">        
        <g strokeLinecap="round" stroke="#FFF" strokeWidth={4} fill="none">          
          <path d="M-.125-9V9" transform="matrix(0 .92974 -1.00419 0 30 30.125)" />          
          <path strokeLinejoin="round" d="M-.125-9V9" transform="matrix(0 .92974 -1.00419 0 30 30.125)" />          
        </g>        
      </g>      
    </g>    
  </svg> -->

<?xml version="1.0" encoding="utf-8"?>
<!-- Generator: Adobe Illustrator 23.0.3, SVG Export Plug-In . SVG Version: 6.00 Build 0)  -->
<svg version="1.1" id="Layer_1" xmlns="http://www.w3.org/2000/svg" xmlns:xlink="http://www.w3.org/1999/xlink" x="0px" y="0px"
	 viewBox="0 0 20 20" style="enable-background:new 0 0 20 20;" xml:space="preserve">
<style type="text/css">
	.st0{fill:#C7C7C7;}
	.st1{fill:none;stroke:#FFFFFF;stroke-width:1.4;stroke-linecap:round;stroke-miterlimit:10;}
</style>
<path class="st0" d="M10,0c1.33,0,2.6,0.25,3.83,0.76s2.31,1.23,3.24,2.17c0.94,0.94,1.66,2.02,2.17,3.24S20,8.67,20,10
	c0,1.33-0.25,2.6-0.76,3.83s-1.23,2.31-2.17,3.24s-2.02,1.66-3.24,2.17S11.33,20,10,20c-1.33,0-2.6-0.25-3.83-0.76
	s-2.31-1.23-3.24-2.17s-1.66-2.02-2.17-3.24S0,11.33,0,10c0-1.33,0.25-2.6,0.76-3.83s1.23-2.31,2.17-3.24
	c0.94-0.94,2.02-1.66,3.24-2.17S8.67,0,10,0z"/>
<line class="st1" x1="6" y1="6" x2="14" y2="14"/>
<line class="st1" x1="14" y1="6" x2="6" y2="14"/>
</svg>
