<?xml version="1.0" encoding="utf-8"?>
<!-- Generator: Adobe Illustrator 26.5.0, SVG Export Plug-In . SVG Version: 6.00 Build 0)  -->
<svg version="1.1" id="Layer_1" xmlns="http://www.w3.org/2000/svg" xmlns:xlink="http://www.w3.org/1999/xlink" x="0px" y="0px"
	 viewBox="0 0 24 24" style="enable-background:new 0 0 24 24;" xml:space="preserve">
<style type="text/css">
	.st0{fill-opacity:0.2;}
	.st1{fill:none;stroke:#FFFFFF;}
	.st2{fill:none;stroke:#FCFCFC;stroke-width:2;stroke-linecap:round;stroke-linejoin:round;}
</style>
<g>
	<g>
		<path class="st0" d="M23.92,12c0-6.58-5.34-11.92-11.92-11.92l0,0C5.42,0.08,0.08,5.42,0.08,12l0,0c0,6.58,5.34,11.92,11.92,11.92
			l0,0C18.58,23.92,23.92,18.58,23.92,12L23.92,12z"/>
		<path class="st1" d="M12,23.42c6.31,0,11.42-5.11,11.42-11.42c0-6.31-5.11-11.42-11.42-11.42C5.69,0.58,0.58,5.69,0.58,12
			C0.58,18.31,5.69,23.42,12,23.42z"/>
	</g>
	<path class="st2" d="M13.49,8.52l-3.46,3.46l3.46,3.46"/>
</g>
</svg>
